<svg xmlns="http://www.w3.org/2000/svg" width="128" height="128" viewBox="0 0 128 128"><path d="M47.373 54h33.254C77.04 49.178 70.935 46 64 46c-6.936 0-13.04 3.178-16.627 8zM44.13 62c-.083.656-.13 1.324-.13 2v6h40v-6c0-.676-.047-1.344-.13-2H44.13zM44 84c0 .676.047 1.344.13 2h39.74c.083-.656.13-1.324.13-2v-6H44v6zM64 102c6.935 0 13.04-3.178 16.627-8H47.373c3.586 4.822 9.69 8 16.627 8zM12.922 58.197a14.436 14.436 0 0 0-7.82 7.82A14.417 14.417 0 0 0 4 71.546a14.394 14.394 0 0 0 1.102 5.533 14.342 14.342 0 0 0 3.13 4.69 14.46 14.46 0 0 0 4.69 3.132A14.406 14.406 0 0 0 18.423 86H18.482c1.87 0 3.742-.37 5.502-1.102a14.363 14.363 0 0 0 4.688-3.13 14.41 14.41 0 0 0 3.133-4.688L44 46 12.922 58.197zM28.096 75.58a10.392 10.392 0 0 1-2.253 3.36 10.375 10.375 0 0 1-3.392 2.264 10.31 10.31 0 0 1-3.968.796h-.06c-1.362 0-2.7-.268-3.964-.79a10.457 10.457 0 0 1-3.4-2.27 10.38 10.38 0 0 1-2.262-3.392A10.377 10.377 0 0 1 8 71.543a10.36 10.36 0 0 1 .796-3.994 10.423 10.423 0 0 1 5.626-5.644l22.505-8.833-8.83 22.508zM122.898 66.016a14.432 14.432 0 0 0-7.82-7.82L84 46l12.195 31.08a14.4 14.4 0 0 0 3.133 4.69 14.352 14.352 0 0 0 4.688 3.128c1.76.73 3.63 1.102 5.502 1.102H109.576c1.873 0 3.746-.37 5.504-1.098a14.47 14.47 0 0 0 4.688-3.133 14.352 14.352 0 0 0 3.13-4.69 14.416 14.416 0 0 0 0-11.064zm-3.696 9.535a10.443 10.443 0 0 1-9.626 6.45h-.06a10.31 10.31 0 0 1-3.974-.798 10.352 10.352 0 0 1-3.386-2.26 10.413 10.413 0 0 1-2.253-3.36l-8.832-22.51 22.506 8.834a10.438 10.438 0 0 1 6.422 9.646 10.336 10.336 0 0 1-.796 4zM54 42c4.418 0 8-3.58 8-8s-3.582-8-8-8-8 3.58-8 8 3.582 8 8 8zm0-12c2.206 0 4 1.795 4 4s-1.794 4-4 4-4-1.795-4-4 1.794-4 4-4zM74 42c4.418 0 8-3.58 8-8s-3.582-8-8-8-8 3.58-8 8 3.582 8 8 8zm0-12c2.206 0 4 1.795 4 4s-1.794 4-4 4-4-1.795-4-4 1.794-4 4-4z"/></svg>